<svg width="62" height="62" viewBox="0 0 62 62" fill="none" xmlns="http://www.w3.org/2000/svg">
<circle cx="31" cy="31" r="31" fill="#E2EAFF" style="fill:#E2EAFF;fill:color(display-p3 0.8876 0.9189 1.0000);fill-opacity:1;"/>
<path d="M27.7222 19H19.3889C19.0205 19 18.6673 19.1463 18.4068 19.4068C18.1463 19.6673 18 20.0205 18 20.3889V28.7222C18 29.0906 18.1463 29.4438 18.4068 29.7043C18.6673 29.9648 19.0205 30.1111 19.3889 30.1111H27.7222C28.0906 30.1111 28.4438 29.9648 28.7043 29.7043C28.9648 29.4438 29.1111 29.0906 29.1111 28.7222V20.3889C29.1111 20.0205 28.9648 19.6673 28.7043 19.4068C28.4438 19.1463 28.0906 19 27.7222 19ZM26.3333 27.3333H20.7778V21.7778H26.3333V27.3333ZM41.6111 32.8889H33.2778C32.9094 32.8889 32.5562 33.0352 32.2957 33.2957C32.0352 33.5562 31.8889 33.9094 31.8889 34.2778V42.6111C31.8889 42.9795 32.0352 43.3327 32.2957 43.5932C32.5562 43.8537 32.9094 44 33.2778 44H41.6111C41.9795 44 42.3327 43.8537 42.5932 43.5932C42.8537 43.3327 43 42.9795 43 42.6111V34.2778C43 33.9094 42.8537 33.5562 42.5932 33.2957C42.3327 33.0352 41.9795 32.8889 41.6111 32.8889ZM40.2222 41.2222H34.6667V35.6667H40.2222V41.2222ZM37.4444 19C34.3806 19 31.8889 21.4917 31.8889 24.5556C31.8889 27.6194 34.3806 30.1111 37.4444 30.1111C40.5083 30.1111 43 27.6194 43 24.5556C43 21.4917 40.5083 19 37.4444 19ZM37.4444 27.3333C35.9125 27.3333 34.6667 26.0875 34.6667 24.5556C34.6667 23.0236 35.9125 21.7778 37.4444 21.7778C38.9764 21.7778 40.2222 23.0236 40.2222 24.5556C40.2222 26.0875 38.9764 27.3333 37.4444 27.3333ZM23.5556 32.8889C20.4917 32.8889 18 35.3806 18 38.4444C18 41.5083 20.4917 44 23.5556 44C26.6194 44 29.1111 41.5083 29.1111 38.4444C29.1111 35.3806 26.6194 32.8889 23.5556 32.8889ZM23.5556 41.2222C22.0236 41.2222 20.7778 39.9764 20.7778 38.4444C20.7778 36.9125 22.0236 35.6667 23.5556 35.6667C25.0875 35.6667 26.3333 36.9125 26.3333 38.4444C26.3333 39.9764 25.0875 41.2222 23.5556 41.2222Z" fill="#002482" style="fill:#002482;fill:color(display-p3 0.0000 0.1417 0.5083);fill-opacity:1;"/>
</svg>
